<?xml version="1.0" encoding="UTF-8"?>
<svg width="304px" height="338px" viewBox="0 0 304 338" preserveAspectRatio="xMinYMax meet" version="1.1" xmlns="http://www.w3.org/2000/svg" xmlns:xlink="http://www.w3.org/1999/xlink">
    <!-- Generator: Sketch 53.2 (72643) - https://sketchapp.com -->
    <title>Fill 1</title>
    <desc>Created with Sketch.</desc>
    <g id="ipad" stroke="none" stroke-width="1" fill="none" fill-rule="evenodd">
        <g id="ipad-1" transform="translate(-43.000000, -368.000000)" fill="#ffffff">
            <path d="M347,527.126663 L347,444.850526 L279.523364,444.850526 L279.523364,465.969521 L318.621506,465.969521 L318.621506,470.3692 C318.621506,490.829305 301.716633,505.136235 279.560402,506.541688 L279.560402,529.528421 C298.430897,527.899796 316.203501,517.94738 321.306709,504.687234 L323.314659,527.126663 L347,527.126663 Z M315.451519,419.505058 L345.579439,419.505058 C339.108357,386.409789 314.114496,368 277.066296,368 C229.977218,368 197.841121,400.436169 197.841121,448.65367 C197.841121,454.770855 198.335238,460.628636 199.281195,466.197895 L230.450196,466.197895 C229.409116,460.811278 228.862152,454.958791 228.862152,448.65367 C228.862152,412.490544 247.162974,391.010251 277.066296,391.010251 C297.82185,391.010251 311.657123,400.655869 315.451519,419.505058 L315.451519,419.505058 Z M147.411215,466.197895 L173.691589,466.197895 L173.691589,370.846316 L147.411215,370.846316 L147.411215,466.197895 Z M136.757009,465.737699 L78.432288,370.134737 L43,370.134737 L43,526.682105 L69.7360163,526.682105 L69.7360163,405.434088 L70.1586784,405.434088 L106.996318,465.756235 L106.996318,465.737699 L136.757009,465.737699 Z M107.338618,549.452632 L43,549.452632 L43,706 L71.5893345,706 L71.5893345,650.311705 L108.092855,650.311705 C146.136721,650.311705 166.588785,632.55214 166.588785,599.884816 C166.588785,599.800083 166.583474,599.723293 166.580818,599.643856 L137.776366,599.643856 C137.776366,599.723293 137.779022,599.800083 137.779022,599.884816 C137.779022,618.301063 127.004574,627.070957 105.453023,627.070957 L71.5893345,627.070957 L71.5893345,572.915804 L105.453023,572.915804 C106.093063,572.915804 106.719824,572.923748 107.338618,572.936988 L107.338618,549.452632 Z" id="Fill-1"></path>
        </g>
    </g>
</svg>