<svg xmlns="http://www.w3.org/2000/svg" viewBox="0 0 304 338" preserveAspectRatio="xMinYMax meet"><title>logo-white-outline</title><path d="M234.07,1.25c18.22,0,33.36,4.41,45,13.09,11.29,8.44,18.69,20.52,22,35.91H273.46c-4.12-18.39-18.07-28.49-39.4-28.49-15.09,0-27.64,5.43-36.27,15.71s-13.18,25.19-13.18,43.19A95.48,95.48,0,0,0,186,96.95H157.34a104.41,104.41,0,0,1-1.25-16.29c0-23.29,7.47-43.18,21.59-57.53S211.27,1.25,234.07,1.25M34.73,3.38l56.8,93.1H64.69L28.23,36.78l-0.37-.6H25.49V157.43H1.25V3.38H34.73M129.44,4.1V96.95H105.66V4.1h23.78m173.31,74v79.78H281.46l-1.91-21.3-0.48-5.36-1.93,5c-4.62,12-21,21.93-39.33,23.91V139.7c23.06-1.93,39.06-17.14,39.06-37.33V96.72h-39.1V78.1h65M63.09,182.7v21H27.34v56.66H62.45c11.23,0,19.42-2.28,25-7,5.46-4.55,8.32-11.43,8.52-20.45h26.31c-0.2,15.41-5.09,27.35-14.54,35.51-9.73,8.4-24.09,12.66-42.7,12.66H27.34v55.69H1.25v-154H63.09M234.07,0C187,0,154.84,32.44,154.84,80.65a104.73,104.73,0,0,0,1.44,17.54h31.17a92.49,92.49,0,0,1-1.59-17.54c0-36.16,18.3-57.64,48.2-57.64,20.76,0,34.59,9.65,38.39,28.49h30.13C296.11,18.41,271.11,0,234.07,0h0ZM35.43,2.13H0V158.68H26.74V37.43h0.42L64,97.76v0H93.76L35.43,2.13h0Zm95.26,0.71H104.41V98.2h26.28V2.85h0ZM304,76.85H236.52V98h39.1v4.4c0,20.46-16.9,34.77-39.06,36.17v23c18.87-1.63,36.64-11.58,41.75-24.84l2,22.44H304V76.85h0ZM64.34,181.45H0V338H28.59V282.31h36.5c38,0,58.5-17.76,58.5-50.43,0-.08,0-0.16,0-0.24H94.78c0,0.08,0,.16,0,0.24,0,18.42-10.77,27.19-32.33,27.19H28.59V204.92H62.45l1.89,0V181.45h0Z" style="fill:#000"/></svg>